<?xml version="1.0" encoding="iso-8859-1"?>
<!-- Generator: Adobe Illustrator 19.0.0, SVG Export Plug-In . SVG Version: 6.00 Build 0)  -->
<svg version="1.1" id="Capa_1" xmlns="http://www.w3.org/2000/svg" xmlns:xlink="http://www.w3.org/1999/xlink" x="0px" y="0px"
	 viewBox="0 0 491.3 491.3" style="enable-background:new 0 0 491.3 491.3;" xml:space="preserve">
<g>
	<path style="fill:#C8D4E4;" d="M481.6,113.825c-16-27.8-47.4-36.4-69.2-34.7c1.5-22.5-5.8-43.5-20.2-58.1c-29.8-30.9-82.3-26-120.8,9.4
		c-25.3,23.6-33.6,79.6-35.8,128c-26.1-40.9-61.4-85.4-95.2-93.1c-51.2-11.3-99,10.6-109.4,52.3c-5.2,19.8-1,41.7,11.6,60.4
		c-19.8,9.4-42.6,32.6-42.6,64.7c0.1,37.5,30.4,71.8,72.1,82.2c36,8.9,82.7-7.7,121.5-27.4c-19.6,38.8-36.1,85.4-27.1,121.3
		c10.4,41.7,44.8,71.9,82.3,71.9c32,0,55.2-22.9,64.6-42.7c18.8,12.5,40.6,16.7,60.4,11.5c41.7-10.4,63.6-58.3,52.1-109.4
		c-7.5-32.4-48.8-66.1-88.3-91.8c44.5-2,95.3-10.8,122.7-37.3C491.3,191.225,500.3,146.425,481.6,113.825z M82.4,285.325
		c-24-6.2-41.7-23.9-41.8-42.6l0,0c0-19,22.3-32.7,42.6-32.4c17.8,0.3,31.1-26.8,10.3-38.6c-17.9-10.1-27.1-28.1-23-42.7
		c5.2-19.8,32.2-29.2,61.4-23c26.1,5.2,69.9,70.7,97.1,122.7C185.5,258.025,116.8,293.525,82.4,285.325z M385.3,358.425
		c6.3,29.2-3.1,56.3-22.9,61.5c-14.6,4.2-31-6-42.7-22.9c-13.7-19.7-38.7-7.6-38.5,10.4c0.1,20.3-13.3,42.7-32.3,42.7l0,0
		c-18.8,0-36.5-17.7-42.7-41.7c-8.3-34.4,27.1-103.1,56.3-146.9C314.4,288.625,380.1,332.425,385.3,358.425z M431.6,191.925
		c-25.6,24.4-102.9,28-155.4,24.5c-2.5-58.7,2.7-137.4,22.7-154.9c22.2-20,50.3-25.4,64.7-10.8c10.9,10.6,10.6,30.1,1.4,48.5
		c-9.9,20,10.9,37.7,28.3,28.2c17.8-9.7,43.6-9.8,53.1,6.7l0,0C455.7,150.425,449.2,174.525,431.6,191.925z"/>
</g>
<g>
</g>
<g>
</g>
<g>
</g>
<g>
</g>
<g>
</g>
<g>
</g>
<g>
</g>
<g>
</g>
<g>
</g>
<g>
</g>
<g>
</g>
<g>
</g>
<g>
</g>
<g>
</g>
<g>
</g>
</svg>
